<?xml version="1.0" encoding="utf-8"?>
<!-- Generator: Adobe Illustrator 20.1.0, SVG Export Plug-In . SVG Version: 6.00 Build 0)  -->
<!DOCTYPE svg PUBLIC "-//W3C//DTD SVG 1.1//EN" "http://www.w3.org/Graphics/SVG/1.1/DTD/svg11.dtd">
<svg version="1.1" xmlns="http://www.w3.org/2000/svg" xmlns:xlink="http://www.w3.org/1999/xlink" x="0px" y="0px"
	 viewBox="0 0 1334 750" style="enable-background:new 0 0 1334 750;" xml:space="preserve">
<style type="text/css">
	.st0{fill:#326584;}
	.st1{fill:none;stroke:#326584;stroke-width:2;stroke-miterlimit:10;}
	.st2{clip-path:url(#SVGID_2_);fill:none;stroke:#326584;stroke-width:0.25;}
	.st3{fill:none;stroke:#326584;stroke-width:1.466;stroke-linecap:round;stroke-linejoin:round;}
	.st4{clip-path:url(#SVGID_4_);fill:#326584;}
	.st5{fill:none;stroke:#326584;stroke-width:0.15;}
	.st6{opacity:0.9;clip-path:url(#SVGID_6_);}
	.st7{clip-path:url(#SVGID_8_);fill:#326584;}
	.st8{fill:#FFFFFF;}
	.st9{font-family:'HelveticaNeue-Bold';}
	.st10{font-size:3.9559px;}
	.st11{opacity:0.3;clip-path:url(#SVGID_10_);}
	.st12{clip-path:url(#SVGID_12_);fill:#326584;}
	.st13{opacity:0.6;clip-path:url(#SVGID_10_);}
	.st14{clip-path:url(#SVGID_14_);fill:#326584;}
	.st15{clip-path:url(#SVGID_14_);fill:none;stroke:#FFFFFF;stroke-width:0.25;}
	.st16{opacity:0.2;clip-path:url(#SVGID_10_);}
	.st17{clip-path:url(#SVGID_16_);fill:#FFFFFF;}
	.st18{clip-path:url(#SVGID_18_);fill:#FFFFFF;}
	.st19{clip-path:url(#SVGID_20_);fill:#FFFFFF;}
	.st20{fill:none;stroke:#326584;stroke-width:1.376;stroke-linecap:round;stroke-linejoin:round;stroke-dasharray:0,2.763;}
	.st21{fill:none;stroke:#326584;stroke-width:1.376;stroke-linecap:round;stroke-linejoin:round;}
	.st22{opacity:0.8;}
	.st23{filter:url(#Adobe_OpacityMaskFilter);}
	.st24{clip-path:url(#SVGID_22_);fill:url(#SVGID_24_);}
	.st25{clip-path:url(#SVGID_22_);mask:url(#SVGID_23_);}
	.st26{clip-path:url(#SVGID_26_);fill:#326584;}
	.st27{opacity:0.6;}
	.st28{fill:none;stroke:#326584;stroke-width:0.25;}
	.st29{fill:none;}
	.st30{fill:none;stroke:#326584;stroke-width:0.75;stroke-miterlimit:10;}
	.st31{fill:none;stroke:#326584;stroke-linecap:round;stroke-linejoin:round;stroke-miterlimit:10;}
	.st32{fill:none;stroke:#326584;stroke-width:0.25;stroke-miterlimit:10;}
	.st33{fill:none;stroke:#326584;stroke-miterlimit:10;}
	.st34{clip-path:url(#SVGID_30_);}
	.st35{clip-path:url(#SVGID_32_);fill:none;stroke:#326584;stroke-width:0.64;stroke-linecap:round;stroke-linejoin:round;}
	.st36{opacity:0.6;clip-path:url(#SVGID_32_);}
	.st37{clip-path:url(#SVGID_34_);fill:none;stroke:#326584;stroke-width:0.64;stroke-linecap:round;stroke-linejoin:round;}
	.st38{clip-path:url(#SVGID_32_);fill:#326584;}
	.st39{fill:none;stroke:#FFFFFF;stroke-width:0.5;stroke-miterlimit:10;}
	.st40{fill:#326584;stroke:#FFFFFF;stroke-width:3;stroke-miterlimit:10;}
	.st41{fill:#326584;stroke:#FFFFFF;stroke-width:2;stroke-miterlimit:10;}
	.st42{opacity:0.2;fill:#326584;}
	.st43{fill:#326584;stroke:#FFFFFF;stroke-width:0.75;stroke-miterlimit:10;}
	.st44{font-family:'Roboto-Bold';}
	.st45{font-size:12px;}
</style>
<g id="Layer_1">
	<path class="st0" d="M107.3,133.3c0,0.3,0,0.7,0,1c2.4,0.8,4.8,1.4,7.1,2.4c2.4,1,4.2,0.6,6.3-0.8c5.1-3.4,10.4-6.6,15.6-9.9
		c0.7-0.5,1.5-0.8,2.3-1.2c-3.8,4.2-7.6,8.2-12,11.4c-4.8,3.4-4.6,7.9-4.5,13.5c2.3-2.1,4.2-3.7,6.1-5.4c2.6,1.9,5.1,3.8,7.6,5.6
		c2.8,2,3.9,1.7,4.6-1.7c1.9-8.5,3.7-17.1,5.5-25.7c0.2-1.1,0.2-2.6-0.4-3.3c-0.5-0.5-2.2-0.2-3.2,0.1c-10.6,4-21.2,8.1-31.7,12.2
		C109.4,131.9,108.4,132.7,107.3,133.3z"/>
	<path class="st0" d="M126.8,667.4c-17.1,1.5-31.7-14.9-32.3-30.8c-0.6-19.4,16.3-33.9,32.1-33.6c19.8,0.4,32.2,13.8,32.4,35.6
		C159.1,651.1,145.7,668.9,126.8,667.4z M131.1,627.9c-4.1,0-7.9,0-11.7,0.1c-0.5,0-1,0.7-1.5,1.2c0.4,0.5,0.9,1.3,1.3,1.3
		c2.6-0.1,3,1.6,3,3.6c0,5,0,10,0,14.9c0,1.9-0.6,3.1-2.7,3.2c-0.6,0-1.1,0.9-1.6,1.4c0.5,0.4,1.1,1,1.6,1c4.9,0.1,9.7,0.1,14.6,0
		c0.5,0,1-0.8,1.5-1.2c-0.5-0.5-0.9-1.3-1.4-1.3c-2.9,0-3.2-1.9-3.2-4.2C131.2,641.4,131.1,634.8,131.1,627.9z M126.4,622
		c2.5,0.1,5.1-2.4,5.2-4.8c0.1-2.4-2.5-4.9-5-5c-2.6,0-4.7,2-4.8,4.6C121.7,619.5,123.8,621.9,126.4,622z"/>
	<path class="st0" d="M130,224.9c17.7,0,31.7,13.9,31.6,31.4c0,18-14.1,31.8-32.4,31.8c-17.1-0.1-31-14.4-31-31.8
		C98.2,238.7,112.3,224.8,130,224.9z M130.1,226.8c-16.5-0.1-29.9,13-29.9,29.3c0,16.4,13,29.8,29.1,29.9
		c17.2,0.1,30.2-12.6,30.3-29.6C159.8,240,146.7,226.9,130.1,226.8z"/>
	<path class="st0" d="M130,478.9c17.7,0,31.7,13.9,31.6,31.4c0,18-14.1,31.8-32.4,31.8c-17.1-0.1-31-14.4-31-31.8
		C98.2,492.8,112.3,478.9,130,478.9z M130.1,480.9c-16.5-0.1-29.9,13-29.9,29.3c0,16.4,13,29.8,29.1,29.9
		c17.2,0.1,30.2-12.6,30.3-29.6C159.8,494.1,146.7,481,130.1,480.9z"/>
	<path class="st0" d="M130,103.4c17.7,0,31.7,13.9,31.6,31.4c0,18-14.1,31.8-32.4,31.8c-17.1-0.1-31-14.4-31-31.8
		C98.2,117.2,112.3,103.3,130,103.4z M130.1,105.3c-16.5-0.1-29.9,13-29.9,29.3c0,16.4,13,29.8,29.1,29.9
		c17.2,0.1,30.2-12.6,30.3-29.6C159.8,118.5,146.7,105.4,130.1,105.3z"/>
	<path class="st0" d="M125.5,354.8c17.7,0.1,31.7,14,31.6,31.5c-0.1,18.1-14.1,31.8-32.4,31.7c-17-0.1-31-14.5-31-31.9
		C93.8,368.5,107.8,354.8,125.5,354.8z M125.3,416c16.8,0,29.7-12.9,29.8-29.8c0-16.4-13.1-29.4-29.8-29.4
		c-16.3,0-29.7,13.1-29.7,29.3C95.6,402.8,108.7,416,125.3,416z"/>
	<path class="st0" d="M130.5,252.2c0.9-2.4,1.3-4.5,2.4-6.3c1.8-2.9,5.8-4.1,8.9-2.4c2.5,1.4,4.7,1.8,7.9-0.2
		c-1.1,1.8-1.7,2.8-2.4,3.9c0.8,0,1.5-0.1,1.5-0.1c-0.9,3.1-1.9,6.3-2.6,9.5c-3.1,13.3-17.9,20.6-30.3,14.8c-0.5-0.2-1-0.7-1.4-0.9
		c3.2-1,6.2-1.9,9.4-2.9c-2.6-1.9-4.6-3.5-7.3-5.5c1.6-0.6,2.2-0.8,2.3-0.9c-1.5-2-3.2-4.1-5.1-6.7c1.7-0.3,2.4-0.4,3.2-0.6
		c-2.2-2.9-3.1-5.9-1.3-9.6C119.8,249,124.7,251.7,130.5,252.2z"/>
	<path class="st0" d="M120.6,388.3c2.9,3.9,6.2,3.6,9.3-0.3c4.5,4.4,8.7,8.6,13.1,13c-11.9,0-23.8,0-35.4,0
		C111.8,397,116,392.8,120.6,388.3z"/>
	<path class="st0" d="M143.8,373.4c-6.3,4.8-11.9,9.1-17.5,13.3c-0.5,0.4-1.6,0.6-1.9,0.3c-5.8-4.3-11.4-8.7-17.9-13.6
		C119.3,373.4,131,373.4,143.8,373.4z"/>
	<path class="st0" d="M143.8,396.2c-3.5-3.6-6.9-7.1-10.4-10.7c3.2-2.4,6.6-5,10.4-8C143.8,384.1,143.8,390,143.8,396.2z"/>
	<path class="st0" d="M106.6,377.6c3.7,2.8,7,5.4,10.3,7.9c-3.6,3.4-7,6.7-10.3,9.9C106.6,390.1,106.6,384.1,106.6,377.6z"/>
	<path class="st1" d="M190.4,129.3c0,0,67.5-13.4,106.5,51.1s64.5,208.4,207,208.4H570"/>
	<path class="st1" d="M202.8,250.3c75-1.5,94.3,28.2,118.8,67.4c31,49.6,88.2,70.7,166.1,70.7"/>
	<path class="st1" d="M190.1,646.5c0,0,67.5,13.2,106.5-50.7S361.1,389,503.6,389"/>
	<path class="st1" d="M202.8,526.1c75,1.5,94.3-27.9,118.8-66.9c31-49.2,88.2-70.1,166.1-70.1"/>
	<path class="st1" d="M1161.2,250.3c-59.6-1.5-75,28.2-94.5,67.4c-24.7,49.6-70.1,70.7-132.1,70.7"/>
	<path class="st1" d="M1161.2,526.1c-59.6,1.5-75-27.9-94.5-66.9c-24.7-49.2-70.1-70.1-132.1-70.1"/>
	<line class="st1" x1="190.1" y1="388.8" x2="503.6" y2="388.8"/>
	<line class="st1" x1="720.8" y1="388.8" x2="824.1" y2="388.8"/>
	<line class="st1" x1="886" y1="315.6" x2="886" y2="206"/>
	<g>
		<g>
			<defs>
				<rect id="SVGID_1_" x="589.8" y="309.1" width="113" height="163"/>
			</defs>
			<clipPath id="SVGID_2_">
				<use xlink:href="#SVGID_1_"  style="overflow:visible;"/>
			</clipPath>
			<polygon class="st2" points="590,309.3 590,309.3 590,324.6 702.2,324.6 702.2,309.3 			"/>
			<polygon class="st2" points="589.9,454.2 589.9,454.2 589.9,471.9 646.4,471.9 646.4,454.2 			"/>
			<polygon class="st2" points="646.5,454.2 646.5,454.2 646.5,471.9 702.8,471.9 702.8,454.2 			"/>
		</g>
		<polyline class="st3" points="673.6,460.2 676.4,463 673.6,465.9 		"/>
		<polyline class="st3" points="619.4,460.2 616.6,463 619.4,465.9 		"/>
		<g>
			<defs>
				<rect id="SVGID_3_" x="589.8" y="309.1" width="113" height="163"/>
			</defs>
			<clipPath id="SVGID_4_">
				<use xlink:href="#SVGID_3_"  style="overflow:visible;"/>
			</clipPath>
			<path class="st4" d="M676,315.2c0-0.2,0-0.4,0.1-0.6c0.1-0.2,0.2-0.2,0.4-0.2c0.1,0,0.2,0,0.3,0.1c0.1,0,0.1,0.1,0.2,0.2v1.1
				c0,0.1-0.1,0.1-0.2,0.2c-0.1,0-0.2,0.1-0.3,0.1c-0.2,0-0.3-0.1-0.4-0.2C676,315.6,676,315.5,676,315.2L676,315.2z M675.3,315.2
				c0,0.4,0.1,0.7,0.3,0.9c0.2,0.2,0.4,0.4,0.7,0.4c0.1,0,0.3,0,0.4-0.1c0.1-0.1,0.2-0.1,0.3-0.2v0.2c0,0.2,0,0.3-0.1,0.4
				s-0.2,0.1-0.4,0.1c-0.1,0-0.3,0-0.4,0c-0.1,0-0.2-0.1-0.3-0.1l-0.1,0.5c0.1,0.1,0.3,0.1,0.4,0.1c0.1,0,0.3,0.1,0.4,0.1
				c0.4,0,0.7-0.1,0.9-0.3c0.2-0.2,0.3-0.4,0.3-0.8v-2.6H677l-0.1,0.3c-0.1-0.1-0.2-0.2-0.3-0.3c-0.1-0.1-0.2-0.1-0.4-0.1
				c-0.3,0-0.6,0.1-0.7,0.4C675.4,314.5,675.3,314.8,675.3,315.2L675.3,315.2z M672.6,313.9v2.6h0.7v-1.9c0-0.1,0.1-0.1,0.2-0.2
				c0.1,0,0.2-0.1,0.2-0.1c0.1,0,0.2,0,0.3,0.1c0.1,0.1,0.1,0.2,0.1,0.4v1.6h0.7v-1.6c0-0.4-0.1-0.6-0.2-0.8
				c-0.1-0.2-0.4-0.2-0.6-0.2c-0.2,0-0.3,0-0.4,0.1c-0.1,0.1-0.2,0.2-0.3,0.3l0-0.4H672.6z M672,312.7h-0.7v0.5h0.7V312.7z
				 M672,313.9h-0.7v2.6h0.7V313.9z M669.1,315.2c0-0.2,0-0.4,0.1-0.6c0.1-0.2,0.2-0.2,0.4-0.2c0.1,0,0.2,0,0.3,0.1
				c0.1,0,0.1,0.1,0.2,0.2v1.1c0,0.1-0.1,0.1-0.2,0.2c-0.1,0-0.2,0.1-0.3,0.1c-0.2,0-0.3-0.1-0.4-0.2
				C669.2,315.6,669.1,315.5,669.1,315.2L669.1,315.2z M668.4,315.2c0,0.4,0.1,0.7,0.3,0.9c0.2,0.2,0.4,0.3,0.7,0.3
				c0.1,0,0.3,0,0.4-0.1c0.1-0.1,0.2-0.2,0.3-0.3l0.1,0.3h0.6v-3.7h-0.7v1.4c-0.1-0.1-0.2-0.2-0.3-0.2c-0.1-0.1-0.2-0.1-0.3-0.1
				c-0.3,0-0.6,0.1-0.7,0.4C668.5,314.5,668.4,314.8,668.4,315.2L668.4,315.2z M666.4,315.1c0-0.2,0-0.4,0.1-0.6
				c0.1-0.1,0.2-0.2,0.4-0.2c0.2,0,0.3,0.1,0.4,0.2c0.1,0.1,0.1,0.3,0.1,0.6v0.1c0,0.2,0,0.4-0.1,0.6c-0.1,0.1-0.2,0.2-0.4,0.2
				c-0.2,0-0.3-0.1-0.4-0.2C666.4,315.6,666.4,315.4,666.4,315.1L666.4,315.1z M665.7,315.2c0,0.4,0.1,0.7,0.3,0.9
				c0.2,0.2,0.5,0.4,0.9,0.4c0.4,0,0.7-0.1,0.9-0.4c0.2-0.2,0.3-0.6,0.3-0.9v-0.1c0-0.4-0.1-0.7-0.3-0.9c-0.2-0.2-0.5-0.4-0.9-0.4
				c-0.4,0-0.7,0.1-0.9,0.4C665.8,314.4,665.7,314.8,665.7,315.2L665.7,315.2z M663.6,315.1c0-0.2,0-0.4,0.1-0.6
				c0.1-0.1,0.2-0.2,0.4-0.2c0.2,0,0.3,0.1,0.4,0.2c0.1,0.1,0.1,0.3,0.1,0.6v0.1c0,0.2,0,0.4-0.1,0.6c-0.1,0.1-0.2,0.2-0.4,0.2
				c-0.2,0-0.3-0.1-0.4-0.2C663.7,315.6,663.6,315.4,663.6,315.1L663.6,315.1z M662.9,315.2c0,0.4,0.1,0.7,0.3,0.9
				c0.2,0.2,0.5,0.4,0.9,0.4c0.4,0,0.7-0.1,0.9-0.4c0.2-0.2,0.3-0.6,0.3-0.9v-0.1c0-0.4-0.1-0.7-0.3-0.9c-0.2-0.2-0.5-0.4-0.9-0.4
				c-0.4,0-0.7,0.1-0.9,0.4C663,314.4,662.9,314.8,662.9,315.2L662.9,315.2z M662.5,312.7h-0.7v3.7h0.7V312.7z M660.8,316.5v-2.1
				h0.5v-0.5h-0.5v-0.3c0-0.1,0-0.2,0.1-0.3c0.1-0.1,0.1-0.1,0.3-0.1c0,0,0.1,0,0.1,0c0,0,0.1,0,0.1,0l0.1-0.5c-0.1,0-0.1,0-0.2,0
				c-0.1,0-0.1,0-0.2,0c-0.3,0-0.5,0.1-0.7,0.2c-0.2,0.2-0.3,0.4-0.3,0.7v0.3h-0.4v0.5h0.4v2.1H660.8z M657.9,316.5v-2.1h0.5v-0.5
				h-0.5v-0.3c0-0.1,0-0.2,0.1-0.3c0.1-0.1,0.1-0.1,0.3-0.1c0,0,0.1,0,0.1,0c0,0,0.1,0,0.1,0l0.1-0.5c-0.1,0-0.1,0-0.2,0
				c-0.1,0-0.1,0-0.2,0c-0.3,0-0.5,0.1-0.7,0.2c-0.2,0.2-0.3,0.4-0.3,0.7v0.3h-0.4v0.5h0.4v2.1H657.9z M654.8,315.1
				c0-0.2,0-0.4,0.1-0.6c0.1-0.1,0.2-0.2,0.4-0.2c0.2,0,0.3,0.1,0.4,0.2c0.1,0.1,0.1,0.3,0.1,0.6v0.1c0,0.2,0,0.4-0.1,0.6
				c-0.1,0.1-0.2,0.2-0.4,0.2c-0.2,0-0.3-0.1-0.4-0.2C654.9,315.6,654.8,315.4,654.8,315.1L654.8,315.1z M654.1,315.2
				c0,0.4,0.1,0.7,0.3,0.9c0.2,0.2,0.5,0.4,0.9,0.4c0.4,0,0.7-0.1,0.9-0.4c0.2-0.2,0.3-0.6,0.3-0.9v-0.1c0-0.4-0.1-0.7-0.3-0.9
				c-0.2-0.2-0.5-0.4-0.9-0.4c-0.4,0-0.7,0.1-0.9,0.4C654.2,314.4,654.1,314.8,654.1,315.2L654.1,315.2z M651.4,313.2v0.6h-0.4v0.5
				h0.4v1.3c0,0.3,0.1,0.5,0.2,0.6c0.1,0.1,0.3,0.2,0.6,0.2c0.1,0,0.2,0,0.2,0c0.1,0,0.1,0,0.2-0.1l-0.1-0.5c0,0-0.1,0-0.1,0
				c0,0-0.1,0-0.1,0c-0.1,0-0.1,0-0.2-0.1c0,0-0.1-0.1-0.1-0.2v-1.3h0.4v-0.5h-0.4v-0.6H651.4z M649.2,312.7h-0.7v3.7h0.7v-1.9
				c0-0.1,0.1-0.1,0.2-0.1c0.1,0,0.2-0.1,0.3-0.1c0.1,0,0.2,0,0.3,0.1c0.1,0.1,0.1,0.2,0.1,0.4v1.5h0.7v-1.5c0-0.4-0.1-0.7-0.2-0.8
				c-0.2-0.2-0.4-0.3-0.6-0.3c-0.1,0-0.3,0-0.4,0.1c-0.1,0.1-0.2,0.2-0.3,0.3V312.7z M646.4,315.2c0-0.2,0-0.4,0.1-0.6
				c0.1-0.2,0.2-0.2,0.4-0.2c0.1,0,0.2,0,0.3,0.1c0.1,0,0.1,0.1,0.2,0.2v1.1c0,0.1-0.1,0.1-0.2,0.2c-0.1,0-0.2,0.1-0.3,0.1
				c-0.2,0-0.3-0.1-0.4-0.2C646.4,315.6,646.4,315.5,646.4,315.2L646.4,315.2z M645.7,315.2c0,0.4,0.1,0.7,0.3,0.9
				c0.2,0.2,0.4,0.4,0.7,0.4c0.1,0,0.3,0,0.4-0.1c0.1-0.1,0.2-0.1,0.3-0.2v0.2c0,0.2,0,0.3-0.1,0.4s-0.2,0.1-0.4,0.1
				c-0.1,0-0.3,0-0.4,0c-0.1,0-0.2-0.1-0.3-0.1l-0.1,0.5c0.1,0.1,0.3,0.1,0.4,0.1c0.1,0,0.3,0.1,0.4,0.1c0.4,0,0.7-0.1,0.9-0.3
				c0.2-0.2,0.3-0.4,0.3-0.8v-2.6h-0.6l-0.1,0.3c-0.1-0.1-0.2-0.2-0.3-0.3c-0.1-0.1-0.2-0.1-0.4-0.1c-0.3,0-0.6,0.1-0.7,0.4
				C645.8,314.5,645.7,314.8,645.7,315.2L645.7,315.2z M645.2,312.7h-0.7v0.5h0.7V312.7z M645.2,313.9h-0.7v2.6h0.7V313.9z
				 M643.3,314.5c0.1,0.1,0.1,0.2,0.1,0.4v0.1h-0.9l0,0c0-0.2,0.1-0.3,0.1-0.4c0.1-0.1,0.2-0.1,0.3-0.1
				C643.1,314.4,643.2,314.4,643.3,314.5 M643.6,316.4c0.2-0.1,0.3-0.1,0.4-0.2l-0.2-0.4c-0.1,0.1-0.2,0.1-0.3,0.1
				c-0.1,0-0.2,0-0.4,0c-0.2,0-0.3-0.1-0.4-0.2c-0.1-0.1-0.2-0.2-0.2-0.4l0,0h1.5V315c0-0.4-0.1-0.6-0.3-0.9
				c-0.2-0.2-0.5-0.3-0.8-0.3c-0.4,0-0.6,0.1-0.8,0.4c-0.2,0.2-0.3,0.6-0.3,0.9v0.1c0,0.4,0.1,0.7,0.3,0.9c0.2,0.2,0.5,0.4,0.9,0.4
				C643.3,316.5,643.4,316.5,643.6,316.4 M639.8,312.7h-0.7v3.7h0.7v-1.9c0-0.1,0.1-0.1,0.2-0.1c0.1,0,0.2-0.1,0.3-0.1
				c0.1,0,0.2,0,0.3,0.1c0.1,0.1,0.1,0.2,0.1,0.4v1.5h0.7v-1.5c0-0.4-0.1-0.7-0.2-0.8c-0.2-0.2-0.4-0.3-0.6-0.3
				c-0.1,0-0.3,0-0.4,0.1c-0.1,0.1-0.2,0.2-0.3,0.3V312.7z M636.7,314.5c0.1,0.1,0.1,0.2,0.1,0.4v0.1H636l0,0c0-0.2,0.1-0.3,0.1-0.4
				c0.1-0.1,0.2-0.1,0.3-0.1C636.6,314.4,636.7,314.4,636.7,314.5 M637,316.4c0.2-0.1,0.3-0.1,0.4-0.2l-0.2-0.4
				c-0.1,0.1-0.2,0.1-0.3,0.1c-0.1,0-0.2,0-0.4,0c-0.2,0-0.3-0.1-0.4-0.2c-0.1-0.1-0.2-0.2-0.2-0.4l0,0h1.5V315
				c0-0.4-0.1-0.6-0.3-0.9c-0.2-0.2-0.5-0.3-0.8-0.3c-0.4,0-0.6,0.1-0.8,0.4c-0.2,0.2-0.3,0.6-0.3,0.9v0.1c0,0.4,0.1,0.7,0.3,0.9
				c0.2,0.2,0.5,0.4,0.9,0.4C636.7,316.5,636.9,316.5,637,316.4 M633.2,312.7h-0.7v3.7h0.7v-1.9c0-0.1,0.1-0.1,0.2-0.1
				c0.1,0,0.2-0.1,0.3-0.1c0.1,0,0.2,0,0.3,0.1c0.1,0.1,0.1,0.2,0.1,0.4v1.5h0.7v-1.5c0-0.4-0.1-0.7-0.2-0.8
				c-0.2-0.2-0.4-0.3-0.6-0.3c-0.1,0-0.3,0-0.4,0.1c-0.1,0.1-0.2,0.2-0.3,0.3V312.7z M631,313.2v0.6h-0.4v0.5h0.4v1.3
				c0,0.3,0.1,0.5,0.2,0.6c0.1,0.1,0.3,0.2,0.6,0.2c0.1,0,0.2,0,0.2,0c0.1,0,0.1,0,0.2-0.1l-0.1-0.5c0,0-0.1,0-0.1,0
				c0,0-0.1,0-0.1,0c-0.1,0-0.1,0-0.2-0.1c0,0-0.1-0.1-0.1-0.2v-1.3h0.4v-0.5h-0.4v-0.6H631z M628.1,313.2v0.6h-0.4v0.5h0.4v1.3
				c0,0.3,0.1,0.5,0.2,0.6c0.1,0.1,0.3,0.2,0.6,0.2c0.1,0,0.2,0,0.2,0c0.1,0,0.1,0,0.2-0.1l-0.1-0.5c0,0-0.1,0-0.1,0
				c0,0-0.1,0-0.1,0c-0.1,0-0.1,0-0.2-0.1c0,0-0.1-0.1-0.1-0.2v-1.3h0.4v-0.5h-0.4v-0.6H628.1z M627.6,313.9
				C627.6,313.8,627.5,313.8,627.6,313.9c-0.1,0-0.2,0-0.2,0c-0.1,0-0.2,0-0.3,0.1c-0.1,0.1-0.2,0.2-0.2,0.3l0-0.4h-0.6v2.6h0.7
				v-1.7c0-0.1,0.1-0.1,0.2-0.2c0.1,0,0.2-0.1,0.3-0.1l0.3,0L627.6,313.9z M624,315.1c0-0.2,0-0.4,0.1-0.6c0.1-0.1,0.2-0.2,0.4-0.2
				c0.2,0,0.3,0.1,0.4,0.2c0.1,0.1,0.1,0.3,0.1,0.6v0.1c0,0.2,0,0.4-0.1,0.6c-0.1,0.1-0.2,0.2-0.4,0.2c-0.2,0-0.3-0.1-0.4-0.2
				C624,315.6,624,315.4,624,315.1L624,315.1z M623.3,315.2c0,0.4,0.1,0.7,0.3,0.9c0.2,0.2,0.5,0.4,0.9,0.4c0.4,0,0.7-0.1,0.9-0.4
				c0.2-0.2,0.3-0.6,0.3-0.9v-0.1c0-0.4-0.1-0.7-0.3-0.9c-0.2-0.2-0.5-0.4-0.9-0.4c-0.4,0-0.7,0.1-0.9,0.4
				C623.4,314.4,623.3,314.8,623.3,315.2L623.3,315.2z M622.3,315.2c0,0.2,0,0.4-0.1,0.5c-0.1,0.1-0.2,0.2-0.4,0.2
				c-0.1,0-0.2,0-0.3-0.1c-0.1,0-0.1-0.1-0.2-0.2v-1.1c0-0.1,0.1-0.1,0.2-0.2s0.2-0.1,0.3-0.1c0.2,0,0.3,0.1,0.4,0.2
				C622.2,314.7,622.3,314.9,622.3,315.2L622.3,315.2z M623,315.2c0-0.4-0.1-0.7-0.3-1c-0.2-0.2-0.4-0.4-0.7-0.4
				c-0.1,0-0.3,0-0.4,0.1c-0.1,0.1-0.2,0.1-0.3,0.3l0-0.3h-0.6v3.6h0.7v-1.2c0.1,0.1,0.2,0.2,0.3,0.2s0.2,0.1,0.4,0.1
				c0.3,0,0.6-0.1,0.7-0.3C622.9,315.9,623,315.6,623,315.2L623,315.2z M619.4,314.5c0.1,0.1,0.1,0.2,0.1,0.4v0.1h-0.9l0,0
				c0-0.2,0.1-0.3,0.1-0.4c0.1-0.1,0.2-0.1,0.3-0.1C619.3,314.4,619.4,314.4,619.4,314.5 M619.8,316.4c0.2-0.1,0.3-0.1,0.4-0.2
				l-0.2-0.4c-0.1,0.1-0.2,0.1-0.3,0.1c-0.1,0-0.2,0-0.4,0c-0.2,0-0.3-0.1-0.4-0.2c-0.1-0.1-0.2-0.2-0.2-0.4l0,0h1.5V315
				c0-0.4-0.1-0.6-0.3-0.9c-0.2-0.2-0.5-0.3-0.8-0.3c-0.4,0-0.6,0.1-0.8,0.4c-0.2,0.2-0.3,0.6-0.3,0.9v0.1c0,0.4,0.1,0.7,0.3,0.9
				c0.2,0.2,0.5,0.4,0.9,0.4C619.4,316.5,619.6,316.5,619.8,316.4 M615.6,313.5h0.6c0.2,0,0.3,0,0.4,0.1c0.1,0.1,0.1,0.2,0.1,0.4
				c0,0.2,0,0.3-0.1,0.4c-0.1,0.1-0.2,0.1-0.4,0.1h-0.6V313.5z M616.2,315.1c0.2,0,0.3,0,0.4,0.1c0.1,0.1,0.1,0.2,0.1,0.4v0.2
				c0,0.1,0,0.2,0,0.3c0,0.1,0.1,0.2,0.1,0.3h0.7v-0.1c-0.1-0.1-0.1-0.1-0.1-0.2c0-0.1,0-0.2,0-0.3v-0.3c0-0.2,0-0.4-0.1-0.5
				c-0.1-0.1-0.2-0.2-0.4-0.3c0.2-0.1,0.3-0.2,0.4-0.3s0.1-0.3,0.1-0.5c0-0.3-0.1-0.6-0.3-0.8c-0.2-0.2-0.5-0.3-0.9-0.3h-1.3v3.5
				h0.7v-1.4H616.2z"/>
		</g>
		<polygon class="st5" points="647.1,321 647.1,321 647.1,322.7 671,322.7 671,321 		"/>
		<polygon class="st5" points="595.6,321 595.6,321 595.6,322.7 619.5,322.7 619.5,321 		"/>
		<polygon class="st5" points="672.8,321 672.8,321 672.8,322.7 696.7,322.7 696.7,321 		"/>
		<polygon class="st5" points="621.3,321 621.3,321 621.3,322.7 645.3,322.7 645.3,321 		"/>
		<g>
			<defs>
				<rect id="SVGID_5_" x="589.8" y="309.1" width="113" height="163"/>
			</defs>
			<clipPath id="SVGID_6_">
				<use xlink:href="#SVGID_5_"  style="overflow:visible;"/>
			</clipPath>
			<g class="st6">
				<g>
					<defs>
						<rect id="SVGID_7_" x="588.2" y="338.6" width="108.8" height="90.9"/>
					</defs>
					<clipPath id="SVGID_8_">
						<use xlink:href="#SVGID_7_"  style="overflow:visible;"/>
					</clipPath>
					<path class="st7" d="M647.9,420.1c-0.5-1.1-0.9-2.3-1.1-3.6c-0.3-1.7,0-3.4-0.3-5c-0.3-1.4-1.1-2.7-1.4-4.1
						c-0.1-0.6,0.4-1,0.5-1.4c0.1-0.6,0.1-1.3,0.2-2c0.7-0.2,1.3-0.4,2-0.7c-0.1,1.1-0.1,2.3-0.2,3.4c0.3,1.1,0.5,2.1,0.8,3.2
						c0,1.2,0,2.4,0,3.6c0.2,2.7,0.4,5.4,0.6,8.1C648.4,421.1,648.2,420.7,647.9,420.1 M626.7,401.2l-8.3,0.1v0l-1.3,0h0l-1.7,0
						c-0.2,0-0.4,0-0.6-0.1c0,0-0.1,0-0.1,0c-0.2,0-0.3-0.1-0.5-0.2c-0.1-0.1-0.2-0.1-0.3-0.2c-0.2-0.1-0.4-0.3-0.6-0.5
						c-0.4-0.5-0.6-1.1-0.6-1.8v-2c0-0.1,0-0.2,0-0.3c0-0.3,0.3-0.6,0.6-0.9c0.3-0.3,0.6-0.4,0.6-0.4l3.2,0l6.6-0.2v0l0.5,0
						c2,0.2,2.4,0.9,2.4,0.9v0L626.7,401.2z M652.9,359.5c0.3-0.2,0.7-0.2,0.9-0.5c0.2-0.3,0.4-0.7,0.5-1l0.7,0.3l-2.3,5.9
						c-0.5-0.3-0.8-0.6-0.9-1C651.5,361.7,652.3,359.9,652.9,359.5 M651.2,427c-0.3-0.7-0.7-1.4-0.5-2.6c0.6-3.7,1.4-7,2-10.8
						c0.3-1.9-0.1-4.3-0.4-5.9c-0.1-0.7-0.3-2-0.1-2.8c1,0,2.2-0.3,2.6-0.9c0.5-0.8,0.2-3.5,0.4-4.6c0.6-3.6,1.2-8.8,0.5-12.6
						c-0.2-1-0.6-2-0.8-2.9c-0.1-0.8,0.3-1.9,0.1-2.9c-0.2-0.7-0.3-1.5-0.5-2.3c0.4-0.7,0.7-1.4,1.1-2.1c0.6-1.4,1.1-3,1.5-4.8
						c0-0.7,0.1-1.4,0.1-2.2c0.1-0.6,0.2-1.6,0-2.3c-0.4-1.4-1.2-2.2-2.5-2.7c-0.4-0.2-1-0.3-1.6-0.6l2.3-5.9l6.1,2.5l9.7,3.4
						c0,0,9.1,2.8,8.3,2.2c-0.7-0.6-6.8-12.8-7.7-12.9c-0.9-0.1-11-7.9-11-7.9l0.1-1l-0.6-0.3l-0.5,0.6l-0.5,0.1
						c-0.5,0.1-9.6-1.1-18-1.9c-0.9-0.1-10.9,4.4-10.9,4.4l3.2,1.4l7.9,3.3l5.2,2.2c0,0.3,0,0.7,0,1c-0.2,0.9-0.5,2.1-0.3,3.4
						c0.2,1.2,1,1.9,0.8,3.2c-1.6,1.7-4.7,0.5-6.6,1.7c-1,0.6-1.3,2.1-1.7,3.4c-0.8,2.4-3.4,8.3-1.7,11.1c0.8,0.3,2.4-0.2,2.5-0.2
						c-0.1,0.4-0.2,0.8-0.4,1.2c-0.3,0.3-0.5,0.6-0.8,0.9c-0.2,1.4-0.4,3-0.7,4.4c-0.3,1.5-1.1,3.7-0.6,5.5c0,0,0.1,0,0.1,0
						c0.8-0.1,1.4-0.6,2.4-0.5c0,3.3-0.5,7.1,0.1,10.4c0,0.6,0.1,1.3,0.1,2c0.2,0.4,0.5,0.8,0.7,1.1c0,0.7,0,1.4,0,2.2
						c0.3,1.8,0.4,3.6,0.9,5.1c0.8,2.7,1.9,5.2,3,7.6c0.4,0.9,1,1.8,1.3,2.8c0.6,2.3-0.9,3.5-1.6,4.7c0,0.3-0.1,0.6-0.1,0.9h-13.5
						c0.1-0.2,0.1-0.5,0.1-0.8l0.4-26.9l-0.3-0.6c0,0,0,0,0,0.1c0,0,0,0,0-0.1c0.1-0.5,0.2-0.9,0.2-1.1c0.1-0.3,0.2-0.5,0.2-0.5
						c0,0,0,0,0,0v-2.4c0,0-0.3-0.4-0.7-1c-0.4-2.8-0.9-4.6-1.2-5.7c-0.3-1-0.6-1.4-0.6-1.4l3.2-0.3c2.3-0.3,1.8-1.9,1.8-1.9
						c-0.2-3.8-4.4-3.8-4.4-3.8l-2.4-0.1c-0.9-0.2-0.6,0.9-0.6,0.9l-0.3,2c-0.7-0.3-5.6-13.3-5.6-13.3c-0.7-1.6-1.4-2.7-2-3.4
						c-0.8-0.9-1.3-1.3-1.3-1.3c-0.4-0.1-1.1-0.2-2-0.3v0h-0.1c-5.1-0.4-17.1-0.8-20.7-0.9v5.4l20.8,0.7c2.5,0.2,2.3,1.2,2.3,1.2
						l4,11.2c0.2,0.8,0.1,1.2-0.1,1.4c-0.1,0.1-0.1,0.1-0.2,0.2c-0.3,0.2-0.8,0.2-0.8,0.2l-1.6,0l-15-0.5l-2.9-0.1l-0.8,0l-5.3-0.2
						h-0.3v10.7h0.2h0.1l13.1-0.1c3,0,2.9,1.1,2.9,1.1l0,0.8l-0.8,5.3l-0.6,0.6l-14.6-0.1h-0.1h-0.2v8.2h0.2h0.1l14.6-0.1l-0.3,4.1
						c-1.2,2.5-1.8,2-1.8,2l-12.5-0.2h-0.2v4.8h0.3l26.3-0.1v0.1l0.2,6c0,0,0.1,0.1,0.1,0.2h-27v1.8h29.5c0,0,0,0,0.1,0l0.4,0h9.3
						H691V427L651.2,427z"/>
				</g>
			</g>
		</g>
		<text transform="matrix(1 0 0 1 685.1214 442.4844)" class="st8 st9 st10">75 cm</text>
		<g>
			<defs>
				<rect id="SVGID_9_" x="589.8" y="309.1" width="113" height="163"/>
			</defs>
			<clipPath id="SVGID_10_">
				<use xlink:href="#SVGID_9_"  style="overflow:visible;"/>
			</clipPath>
			<g class="st11">
				<g>
					<defs>
						<rect id="SVGID_11_" x="683.5" y="382.7" width="20.3" height="13.7"/>
					</defs>
					<clipPath id="SVGID_12_">
						<use xlink:href="#SVGID_11_"  style="overflow:visible;"/>
					</clipPath>
					<path class="st12" d="M693.7,395.8c2.3,0,4.2-1.9,4.2-4.2c0-2.3-1.9-4.2-4.2-4.2s-4.2,1.9-4.2,4.2
						C689.5,393.9,691.4,395.8,693.7,395.8"/>
				</g>
			</g>
			<g class="st13">
				<g>
					<defs>
						<rect id="SVGID_13_" x="685.3" y="384.6" width="16.5" height="9.9"/>
					</defs>
					<clipPath id="SVGID_14_">
						<use xlink:href="#SVGID_13_"  style="overflow:visible;"/>
					</clipPath>
					<path class="st14" d="M693.6,393.5c1.1,0,1.9-0.9,1.9-1.9c0-1.1-0.9-1.9-1.9-1.9s-1.9,0.9-1.9,1.9
						C691.7,392.6,692.5,393.5,693.6,393.5"/>
					<ellipse class="st15" cx="693.6" cy="391.6" rx="1.9" ry="1.9"/>
				</g>
			</g>
			<g class="st16">
				<g>
					<defs>
						<rect id="SVGID_15_" x="685" y="396.1" width="17.1" height="10.5"/>
					</defs>
					<clipPath id="SVGID_16_">
						<use xlink:href="#SVGID_15_"  style="overflow:visible;"/>
					</clipPath>
					<path class="st17" d="M693.6,405.9c1.4,0,2.6-1.2,2.6-2.6c0-1.4-1.2-2.6-2.6-2.6s-2.6,1.2-2.6,2.6
						C691,404.7,692.1,405.9,693.6,405.9"/>
				</g>
			</g>
			<g class="st16">
				<g>
					<defs>
						<rect id="SVGID_17_" x="685" y="370.8" width="17.1" height="10.5"/>
					</defs>
					<clipPath id="SVGID_18_">
						<use xlink:href="#SVGID_17_"  style="overflow:visible;"/>
					</clipPath>
					<path class="st18" d="M693.6,380.6c1.4,0,2.6-1.2,2.6-2.6c0-1.4-1.2-2.6-2.6-2.6s-2.6,1.2-2.6,2.6
						C691,379.4,692.1,380.6,693.6,380.6"/>
				</g>
			</g>
			<g class="st16">
				<g>
					<defs>
						<rect id="SVGID_19_" x="685" y="358.8" width="17.1" height="10.5"/>
					</defs>
					<clipPath id="SVGID_20_">
						<use xlink:href="#SVGID_19_"  style="overflow:visible;"/>
					</clipPath>
					<path class="st19" d="M693.6,368.6c1.4,0,2.6-1.2,2.6-2.6c0-1.4-1.2-2.6-2.6-2.6s-2.6,1.2-2.6,2.6
						C691,367.4,692.1,368.6,693.6,368.6"/>
				</g>
			</g>
		</g>
		<line class="st20" x1="596.4" y1="391.7" x2="692.2" y2="391.7"/>
		<path class="st21" d="M693.1,391.7L693.1,391.7 M594.6,391.7L594.6,391.7"/>
		<polygon class="st0" points="691.6,386.2 695.5,386.2 693.5,384.2 		"/>
		<polygon class="st0" points="695.5,397.8 691.6,397.8 693.5,399.7 		"/>
		<g class="st22">
			<g>
				<defs>
					<rect id="SVGID_21_" x="588.2" y="386.9" width="104.5" height="42.6"/>
				</defs>
				<clipPath id="SVGID_22_">
					<use xlink:href="#SVGID_21_"  style="overflow:visible;"/>
				</clipPath>
				<defs>
					<filter id="Adobe_OpacityMaskFilter" filterUnits="userSpaceOnUse" x="588.2" y="386.9" width="104.5" height="42.6">
						<feFlood  style="flood-color:white;flood-opacity:1" result="back"/>
						<feBlend  in="SourceGraphic" in2="back" mode="normal"/>
					</filter>
				</defs>
				<mask maskUnits="userSpaceOnUse" x="588.2" y="386.9" width="104.5" height="42.6" id="SVGID_23_">
					<g class="st23">
						
							<linearGradient id="SVGID_24_" gradientUnits="userSpaceOnUse" x1="288.9329" y1="1045.0077" x2="289.5935" y2="1045.0077" gradientTransform="matrix(0 125.2494 125.2494 0 -130246.1953 -35836.2656)">
							<stop  offset="0" style="stop-color:#FFFFFF"/>
							<stop  offset="1" style="stop-color:#000000"/>
						</linearGradient>
						<rect x="588.2" y="386.9" class="st24" width="104.5" height="42.6"/>
					</g>
				</mask>
				<g class="st25">
					<g>
						<defs>
							<rect id="SVGID_25_" x="588.2" y="386.9" width="104.5" height="42.6"/>
						</defs>
						<clipPath id="SVGID_26_">
							<use xlink:href="#SVGID_25_"  style="overflow:visible;"/>
						</clipPath>
						<rect x="594.1" y="391.5" class="st26" width="92.6" height="37.4"/>
					</g>
				</g>
			</g>
		</g>
		<g class="st27">
			<g>
				<defs>
					<rect id="SVGID_27_" x="588.2" y="330.3" width="108.9" height="100.3"/>
				</defs>
				<clipPath id="SVGID_28_">
					<use xlink:href="#SVGID_27_"  style="overflow:visible;"/>
				</clipPath>
			</g>
		</g>
		<rect x="590.2" y="309.5" class="st28" width="112.4" height="162.3"/>
		<rect x="589.8" y="309.1" class="st29" width="113" height="163"/>
		<g>
			<ellipse class="st30" cx="646.3" cy="512.4" rx="10" ry="10.2"/>
			<ellipse class="st30" cx="628.2" cy="280" rx="1.8" ry="1.8"/>
			<ellipse class="st30" cx="646.3" cy="512.4" rx="11.1" ry="11.4"/>
			<path class="st30" d="M591.3,294.3c-0.6,0-1.2,0.5-1.2,1.2v197.8c0,0.7,0.5,1.2,1.2,1.2h110c0.6,0,1.2-0.5,1.2-1.2V295.5
				c0-0.7-0.5-1.2-1.2-1.2H591.3z"/>
			<ellipse class="st30" cx="646" cy="269.5" rx="2.6" ry="2.7"/>
			<path class="st30" d="M635.8,278.8c-0.3,0-0.6,0.3-0.6,0.6v1.2c0,0.3,0.3,0.6,0.6,0.6h13.1h7.4c0.3,0,0.6-0.3,0.6-0.6v-1.2
				c0-0.3-0.3-0.6-0.6-0.6H635.8z"/>
			<path class="st31" d="M582.5,352.9h-1.8v-10.2h1.8v-12.5h-1.8V320h1.8v-13.1h-1.8v-12.5h1.8v-19.1c0-10.6,8.4-19.1,18.7-19.1H668
				v-1.2H689v1.2h2.3c10.3,0,18.7,8.6,18.7,19.1V513c0,10.6-8.4,19.1-18.7,19.1h-90.2c-10.3,0-18.7-8.6-18.7-19.1V352.9z"/>
		</g>
		<g>
			<circle class="st0" cx="595.2" cy="302.6" r="1.1"/>
			<circle class="st0" cx="598.2" cy="302.6" r="1.1"/>
			<circle class="st0" cx="601.2" cy="302.6" r="1.1"/>
			<circle class="st32" cx="604.3" cy="302.6" r="1.1"/>
			<circle class="st32" cx="607.3" cy="302.6" r="1.1"/>
		</g>
		<g>
			<path class="st0" d="M610.5,301.7v-0.3h1.9v0.3h-0.8v2.1h-0.3v-2.1H610.5z"/>
			<path class="st0" d="M613.1,302.7v0.3h-1v-0.3H613.1z"/>
			<path class="st0" d="M613.9,301.4l0.7,2l0.7-2h0.4v2.4h-0.3v-2h0l-0.7,2h-0.3l-0.7-2h0v2h-0.3v-2.4H613.9z"/>
			<path class="st0" d="M616.3,302.6c0-0.1,0.1-0.2,0.2-0.3c0.1-0.1,0.2-0.1,0.3-0.2c0.1,0,0.2-0.1,0.4-0.1c0.1,0,0.3,0,0.4,0.1
				c0.1,0,0.2,0.1,0.3,0.2c0.1,0.1,0.1,0.2,0.2,0.3c0,0.1,0.1,0.2,0.1,0.4c0,0.1,0,0.2-0.1,0.4c0,0.1-0.1,0.2-0.2,0.3
				c-0.1,0.1-0.2,0.1-0.3,0.2s-0.2,0.1-0.4,0.1c-0.1,0-0.3,0-0.4-0.1c-0.1,0-0.2-0.1-0.3-0.2s-0.1-0.2-0.2-0.3
				c0-0.1-0.1-0.2-0.1-0.4C616.2,302.8,616.2,302.7,616.3,302.6z M616.6,303.2c0,0.1,0.1,0.1,0.1,0.2c0,0.1,0.1,0.1,0.2,0.1
				c0.1,0,0.1,0,0.2,0c0.1,0,0.1,0,0.2,0c0.1,0,0.1-0.1,0.2-0.1c0-0.1,0.1-0.1,0.1-0.2c0-0.1,0-0.2,0-0.3c0-0.1,0-0.2,0-0.3
				c0-0.1-0.1-0.1-0.1-0.2c0-0.1-0.1-0.1-0.2-0.1c-0.1,0-0.1,0-0.2,0c-0.1,0-0.1,0-0.2,0c-0.1,0-0.1,0.1-0.2,0.1
				c0,0.1-0.1,0.1-0.1,0.2c0,0.1,0,0.2,0,0.3C616.5,303,616.5,303.1,616.6,303.2z"/>
			<path class="st0" d="M618.5,301.4v0.9h0c0-0.1,0.1-0.2,0.2-0.2c0.1,0,0.2-0.1,0.3-0.1c0.1,0,0.2,0,0.3,0.1c0.1,0,0.2,0.1,0.2,0.2
				c0.1,0.1,0.1,0.2,0.1,0.3s0,0.2,0,0.3c0,0.1,0,0.2,0,0.3c0,0.1-0.1,0.2-0.1,0.3c-0.1,0.1-0.1,0.1-0.2,0.2c-0.1,0-0.2,0.1-0.3,0.1
				c0,0-0.1,0-0.1,0c-0.1,0-0.1,0-0.2,0c-0.1,0-0.1,0-0.1-0.1c0,0-0.1-0.1-0.1-0.1h0v0.2h-0.3v-2.4H618.5z M619.5,302.7
				c0-0.1-0.1-0.1-0.1-0.2c0-0.1-0.1-0.1-0.2-0.1c-0.1,0-0.1-0.1-0.2-0.1c-0.1,0-0.2,0-0.2,0.1c-0.1,0-0.1,0.1-0.2,0.1
				c0,0.1-0.1,0.1-0.1,0.2c0,0.1,0,0.2,0,0.2c0,0.1,0,0.2,0,0.2c0,0.1,0.1,0.1,0.1,0.2c0,0.1,0.1,0.1,0.2,0.1c0.1,0,0.2,0.1,0.2,0.1
				c0.1,0,0.2,0,0.2-0.1c0.1,0,0.1-0.1,0.2-0.1c0-0.1,0.1-0.1,0.1-0.2c0-0.1,0-0.2,0-0.2C619.5,302.8,619.5,302.7,619.5,302.7z"/>
			<path class="st0" d="M620.2,301.7v-0.3h0.3v0.3H620.2z M620.5,302.1v1.7h-0.3v-1.7H620.5z"/>
			<path class="st0" d="M621.2,301.4v2.4h-0.3v-2.4H621.2z"/>
			<path class="st0" d="M622.8,303.7c-0.1,0.1-0.3,0.1-0.5,0.1c-0.1,0-0.3,0-0.4-0.1c-0.1,0-0.2-0.1-0.3-0.2
				c-0.1-0.1-0.1-0.2-0.2-0.3c0-0.1-0.1-0.2-0.1-0.4c0-0.1,0-0.2,0.1-0.4c0-0.1,0.1-0.2,0.2-0.3c0.1-0.1,0.2-0.1,0.3-0.2
				c0.1,0,0.2-0.1,0.3-0.1c0.2,0,0.3,0,0.4,0.1c0.1,0.1,0.2,0.1,0.2,0.2c0.1,0.1,0.1,0.2,0.1,0.3c0,0.1,0,0.2,0,0.3h-1.3
				c0,0.1,0,0.1,0,0.2c0,0.1,0.1,0.1,0.1,0.2c0,0.1,0.1,0.1,0.2,0.1s0.1,0,0.2,0c0.1,0,0.2,0,0.3-0.1c0.1-0.1,0.1-0.1,0.2-0.3h0.3
				C623.1,303.4,623,303.6,622.8,303.7z M622.8,302.6c0-0.1-0.1-0.1-0.1-0.2c0,0-0.1-0.1-0.2-0.1c-0.1,0-0.1,0-0.2,0
				c-0.1,0-0.1,0-0.2,0c-0.1,0-0.1,0.1-0.2,0.1c0,0-0.1,0.1-0.1,0.2c0,0.1,0,0.1,0,0.2h1C622.8,302.7,622.8,302.6,622.8,302.6z"/>
			<path class="st0" d="M626.2,303.8l-0.5-2h0l-0.5,2h-0.3l-0.6-2.4h0.3l0.5,2h0l0.5-2h0.3l0.5,2h0l0.5-2h0.3l-0.6,2.4H626.2z"/>
			<path class="st0" d="M627.4,301.7v-0.3h0.3v0.3H627.4z M627.7,302.1v1.7h-0.3v-1.7H627.7z"/>
			<path class="st0" d="M629,302.7v0.3h-1v-0.3H629z"/>
			<path class="st0" d="M631,301.4v0.3h-1.2v0.8h1.1v0.3h-1.1v1.1h-0.3v-2.4H631z"/>
			<path class="st0" d="M631.3,301.7v-0.3h0.3v0.3H631.3z M631.6,302.1v1.7h-0.3v-1.7H631.6z"/>
		</g>
		<g>
			<path class="st32" d="M696.9,304.7h-8.7c-0.4,0-0.8-0.3-0.8-0.8v-2.6c0-0.4,0.3-0.8,0.8-0.8h8.7c0.4,0,0.8,0.3,0.8,0.8v2.6
				C697.7,304.3,697.3,304.7,696.9,304.7z"/>
			<path class="st0" d="M692,304.4h-3.6c-0.3,0-0.5-0.2-0.5-0.5v-2.5c0-0.3,0.2-0.5,0.5-0.5h3.6L692,304.4z"/>
			<path class="st0" d="M698,301.7v1.7c0,0,0.7,0.1,0.7-0.8S698,301.7,698,301.7z"/>
		</g>
		<polyline class="st32" points="681.1,301.3 683.4,303.5 682.2,304.6 682.2,300.6 683.4,301.7 681.2,303.9 		"/>
		<g>
			<path class="st0" d="M640,303.8c-0.9-0.9-1.6,0-1.6,0l0.8,0.8L640,303.8z"/>
			<path class="st33" d="M637.7,303.1c1.5-1.4,3,0,3,0"/>
			<path class="st33" d="M636.8,302.1c1.6-1.6,3.7-1.2,4.8,0.1"/>
		</g>
	</g>
	<g>
		<defs>
			<rect id="SVGID_29_" x="596.2" y="479.1" width="100.4" height="9.2"/>
		</defs>
		<clipPath id="SVGID_30_">
			<use xlink:href="#SVGID_29_"  style="overflow:visible;"/>
		</clipPath>
		<g class="st34">
			<defs>
				<rect id="SVGID_31_" x="596.2" y="479.1" width="100.4" height="9.2"/>
			</defs>
			<clipPath id="SVGID_32_">
				<use xlink:href="#SVGID_31_"  style="overflow:visible;"/>
			</clipPath>
			<polyline class="st35" points="599.5,480.9 596.4,483.9 599.5,487 			"/>
			<g class="st36">
				<g>
					<defs>
						<rect id="SVGID_33_" x="616.4" y="477.3" width="12.3" height="10.6"/>
					</defs>
					<clipPath id="SVGID_34_">
						<use xlink:href="#SVGID_33_"  style="overflow:visible;"/>
					</clipPath>
					<polyline class="st37" points="621,480.9 624,484 621,487.2 					"/>
				</g>
			</g>
			<path class="st38" d="M647.2,480.6c-0.1,0.1-0.2,0.1-0.2,0l-0.9-0.9c-0.1-0.1-0.2-0.1-0.2,0l-0.9,0.9c-0.1,0.1-0.2,0.1-0.2,0
				c-0.1-0.1-0.1-0.2,0-0.2l1.1-1.2c0.1-0.1,0.2-0.1,0.2,0l1.1,1.2C647.3,480.4,647.3,480.5,647.2,480.6z"/>
			<polyline class="st35" points="645,481.8 642.7,481.8 642.7,488 649.3,488 649.3,481.8 647,481.8 			"/>
			<path class="st35" d="M673.4,480.9v7c0,0-2.5-2.5-4.2,0.1l0-6.7C669.2,481.3,670.8,478.9,673.4,480.9z"/>
			<path class="st35" d="M665.1,480.8v7c0,0,2.5-2.4,4.2,0.2v-6.7C669.2,481.3,667.6,478.8,665.1,480.8z"/>
			<line class="st35" x1="646" y1="479.5" x2="646" y2="484.8"/>
			<rect x="688.5" y="481.8" class="st35" width="6.3" height="6.3"/>
			<polyline class="st35" points="695.6,485.9 696.5,485.9 696.5,479.9 690.4,479.9 690.4,481.2 			"/>
		</g>
	</g>
	<path class="st0" d="M901,374h-53c-2.5,0-4.5-2-4.5-4.5v-0.7c0-2.5,2-4.5,4.5-4.5h53c2.5,0,4.5,2,4.5,4.5v0.7
		C905.5,372,903.5,374,901,374z"/>
	<g>
		<rect x="894.9" y="367.9" class="st39" width="6.7" height="2.5"/>
		<circle class="st39" cx="849" cy="369.2" r="1.2"/>
		<circle class="st39" cx="852.7" cy="369.2" r="1.2"/>
		<circle class="st39" cx="856.3" cy="369.2" r="1.2"/>
	</g>
	<path class="st0" d="M901,385.8h-53c-2.5,0-4.5-2-4.5-4.5v-0.7c0-2.5,2-4.5,4.5-4.5h53c2.5,0,4.5,2,4.5,4.5v0.7
		C905.5,383.8,903.5,385.8,901,385.8z"/>
	<g>
		<rect x="894.9" y="379.7" class="st39" width="6.7" height="2.5"/>
		<circle class="st39" cx="849" cy="380.9" r="1.2"/>
		<circle class="st39" cx="852.7" cy="380.9" r="1.2"/>
		<circle class="st39" cx="856.3" cy="380.9" r="1.2"/>
	</g>
	<path class="st0" d="M901,397.6h-53c-2.5,0-4.5-2-4.5-4.5v-0.7c0-2.5,2-4.5,4.5-4.5h53c2.5,0,4.5,2,4.5,4.5v0.7
		C905.5,395.5,903.5,397.6,901,397.6z"/>
	<g>
		<rect x="894.9" y="391.5" class="st39" width="6.7" height="2.5"/>
		<circle class="st39" cx="849" cy="392.7" r="1.2"/>
		<circle class="st39" cx="852.7" cy="392.7" r="1.2"/>
		<circle class="st39" cx="856.3" cy="392.7" r="1.2"/>
	</g>
	<polygon class="st40" points="884.4,157 853.2,168.7 884.4,180.8 913.5,168.9 	"/>
	<path class="st0" d="M901,409.3h-53c-2.5,0-4.5-2-4.5-4.5v-0.7c0-2.5,2-4.5,4.5-4.5h53c2.5,0,4.5,2,4.5,4.5v0.7
		C905.5,407.3,903.5,409.3,901,409.3z"/>
	<polygon class="st40" points="884.4,149.1 853.2,160.8 884.4,172.9 913.5,161 	"/>
	<g>
		<rect x="894.9" y="403.2" class="st39" width="6.7" height="2.5"/>
		<circle class="st39" cx="849" cy="404.5" r="1.2"/>
		<circle class="st39" cx="852.7" cy="404.5" r="1.2"/>
		<circle class="st39" cx="856.3" cy="404.5" r="1.2"/>
	</g>
	<g>
		<circle class="st41" cx="901.5" cy="386.8" r="21.6"/>
		<g>
			<path class="st8" d="M903.6,395.8v4.1h-4.1v-4.1H903.6z M902.4,393.2h-1.6l-0.9-11.3v-8h3.5v8L902.4,393.2z"/>
		</g>
	</g>
	<polygon class="st40" points="884.4,140.7 853.2,152.4 884.4,164.5 913.5,152.6 	"/>
	<path class="st42" d="M1195.8,239.8l-25,3c-1.3,0.2-2.4-0.9-2.4-2.3v-26.1c0-1.4,1.1-2.5,2.4-2.3l25,3.1c1.1,0.1,1.9,1.1,1.9,2.3
		v20C1197.7,238.7,1196.8,239.7,1195.8,239.8z"/>
	<path class="st42" d="M1225.5,239.3h-24.8c-1.2,0-2.2-1-2.2-2.2v-19.7c0-1.2,1-2.2,2.2-2.2h24.8c1.2,0,2.2,1,2.2,2.2v19.7
		C1227.8,238.3,1226.8,239.3,1225.5,239.3z"/>
	<path class="st42" d="M1255.5,242.5l-25-3c-1.1-0.1-1.9-1.1-1.9-2.3v-20c0-1.2,0.8-2.2,1.9-2.3l25-2.1c1.3-0.2,2.4,0.9,2.4,2.3
		v25.1C1257.8,241.6,1256.7,242.7,1255.5,242.5z"/>
	<path class="st42" d="M1195.8,213.8l-25.6-3.2c-1.3,0.2-1.8-1.4-1.8-2.8l-0.5-25.5c0-1.4,1.1-2.5,2.4-2.3l25.6,9.2
		c1.1,0.1,1.9,1.1,1.9,2.3v20C1197.7,212.7,1196.8,213.6,1195.8,213.8z"/>
	<path class="st42" d="M1225.5,213.5h-24.8c-1.2,0-2.2-1-2.2-2.2v-19.7c0-1.2,1-2.2,2.2-2.2h24.8c1.2,0,2.2,1,2.2,2.2v19.7
		C1227.8,212.5,1226.8,213.5,1225.5,213.5z"/>
	<path class="st42" d="M1255.5,211.4l-25,2.3c-1.1-0.1-1.9-1.1-1.9-2.3v-20c0-1.2,0.8-2.2,1.9-2.3l25-8.4c1.3-0.2,2.4,0.9,2.4,2.3
		v26.1C1257.8,210.4,1256.7,211.5,1255.5,211.4z"/>
	<g>
		<path class="st43" d="M1198,217.5c1.1-4.4,4-5.7,8.8-5.7h29.9c1.9,0,3.4,1.1,3.4,2.9c0,2.1-1.3,3.4-3.4,3.5l-16,0.5
			c-1.1,0-1.6,0.5-1.5,1.3l3.8,55.5c0.1,1.8-0.3,3.2-2.2,3.2h-2.4c-1.9,0-2.3-1.8-2.4-2.8L1213,246c0-0.5-0.4-0.7-1.3-0.7
			s-1.4,0.2-1.5,0.8l-3.1,29.6c-0.1,1.1-0.5,2.7-2.5,2.7h-2.4c-1.5,0-2.2-1.2-2-2.7l3.4-52.9c0-0.2-0.1-0.5-0.4-0.5
			s-0.5,0.1-0.6,0.5l-4.4,18.7c-0.3,1.3-1.3,2.6-2.8,2.6c-1.9,0-3.2-2-2.8-3.6L1198,217.5z M1207,197.9l-0.6,1.6v1.3h11.8v-1.8
			l1.5-2.5l-0.1-1.1L1207,197.9z M1206.4,202.9c0.2,2.7,0.5,5.5,1,6.4c0.4,0.8,2,1.9,4.7,1.9c2.8,0,4.3-1.1,4.7-1.9
			c0.3-0.8,0.5-2.7,0.8-4.7h3.5v-0.7l-3-1.1H1206.4z M1213,220.6c0,1.1,0.6,1.5,1.2,1.9c0,0,0.2,0.1,0.3,0.1c0.1,0,0.3-0.1,0.3-0.1
			c0.6-0.4,1.3-0.7,1.3-1.9v-1.4c-0.4-0.2-1.1-0.5-1.6-0.5c-0.5,0-1.1,0.2-1.5,0.5V220.6z"/>
	</g>
	<path class="st0" d="M1189,509.8h-19.6c-1.4,0-2.6,1.2-2.6,2.6V553c0,1.4,1.2,2.6,2.6,2.6h19.6c1.4,0,2.6-1.2,2.6-2.6v-40.6
		C1191.6,511,1190.4,509.8,1189,509.8z M1182.3,512.8c0.5,0,1,0.4,1,1c0,0.5-0.4,1-1,1c-0.5,0-1-0.4-1-1
		C1181.3,513.2,1181.7,512.8,1182.3,512.8z M1175.7,513.1h2.6c0.4,0,0.7,0.3,0.7,0.7c0,0.4-0.3,0.7-0.7,0.7h-2.6
		c-0.4,0-0.7-0.3-0.7-0.7C1175.1,513.4,1175.4,513.1,1175.7,513.1z M1179.2,553c-1.1,0-2-0.9-2-2c0-1.1,0.9-2,2-2c1.1,0,2,0.9,2,2
		C1181.1,552.2,1180.2,553,1179.2,553z M1169.8,547.9v-31.7h18.7v31.7H1169.8z"/>
	<path class="st0" d="M1238.8,546.5v-47.2c0-1.4-1.2-2.6-2.6-2.6h-61.6c-1.4,0-2.6,1.2-2.6,2.6v7.9h3.9v-6.5h58.9v45.8h-22.9
		c0,0.7-0.6,1.3-1.3,1.3h-10.5c-0.7,0-1.3-0.6-1.3-1.3h-4.6v5.2h44.5c2.9,0,5.2-2.3,5.2-5.2H1238.8z"/>
	<path class="st0" d="M124,531c0-6.1,0-12.3,0-18.7c-2,0-3.9,0-5.9,0c0-2.9,0-5.5,0-8.4c1.9,0,3.8,0,5.9,0c0-1.4,0-2.6,0-3.8
		c0.2-4.9,4.2-10.5,10.5-10c1.7,0.1,3.5,0,5.3,0c0,2.8,0,5.5,0,8.4c-1.8,0-3.5,0-5.2,0c-2.4,0-2.9,0.5-2.9,2.9c0,0.7,0,1.4,0,2.4
		c2.8,0,5.4,0,8.2,0c0,2.9,0,5.5,0,8.4c-2.7,0-5.3,0-8.3,0c0,6.4,0,12.6,0,18.8C129.1,531,126.5,531,124,531z"/>
</g>
<g id="Layer_2">
	<rect x="93" y="172" class="st29" width="71" height="36"/>
	<text transform="matrix(1 0 0 1 103.2197 181.144)"><tspan x="0" y="0" class="st0 st44 st45">Telegram </tspan><tspan x="-4.5" y="14.4" class="st0 st44 st45">Messenger</tspan></text>
	<rect x="93" y="297.6" class="st29" width="71" height="36"/>
	<text transform="matrix(1 0 0 1 109.5918 306.778)" class="st0 st44 st45">Twitter</text>
	<rect x="91.2" y="424.5" class="st29" width="71" height="36"/>
	<text transform="matrix(1 0 0 1 113.8483 433.6284)" class="st0 st44 st45">SMS</text>
	<rect x="93" y="548.9" class="st29" width="71" height="36"/>
	<text transform="matrix(1 0 0 1 102.1592 558.0458)"><tspan x="0" y="0" class="st0 st44 st45">Facebook</tspan><tspan x="-3.5" y="14.4" class="st0 st44 st45">Messenger</tspan></text>
	<rect x="78" y="678.9" class="st29" width="101" height="36"/>
	<text transform="matrix(1 0 0 1 89.5645 688.0453)"><tspan x="0" y="0" class="st0 st44 st45">City Grievance </tspan><tspan x="18.5" y="14.4" class="st0 st44 st45">System</tspan></text>
	<rect x="596.6" y="548.9" class="st29" width="101" height="36"/>
	<text transform="matrix(1 0 0 1 597.9838 558.0453)" class="st0 st44 st45">Report Card Stack</text>
	<rect x="769.1" y="432.3" class="st29" width="210.9" height="50.7"/>
	<text transform="matrix(1 0 0 1 813.9324 441.441)" class="st0 st44 st45">Risk Evaluation Matrix</text>
	<rect x="780.5" y="115.4" class="st29" width="210.9" height="50.7"/>
	<text transform="matrix(1 0 0 1 819.1065 124.5005)" class="st0 st44 st45">Other Geo-spatial Layers</text>
	<rect x="1147.5" y="290.6" class="st29" width="131" height="50.7"/>
	<text transform="matrix(1 0 0 1 1153.6984 299.761)"><tspan x="0" y="0" class="st0 st44 st45">Disaster Management</tspan><tspan x="35.1" y="14.4" class="st0 st44 st45">Interface</tspan></text>
	<rect x="1149.9" y="453.7" class="st29" width="112.9" height="50.7"/>
	<text transform="matrix(1 0 0 1 1189.325 462.8698)"><tspan x="0" y="0" class="st0 st44 st45">Public</tspan><tspan x="-7.2" y="14.4" class="st0 st44 st45">Interface</tspan></text>
</g>
</svg>
